<svg 
    viewBox="0, 0, 400,428.45188284518827">
    <g id="svgg">
        <path id="path0" d="M195.000 11.761 C 192.771 12.468,176.931 21.141,170.683 25.076 C 169.849 25.601,165.799 27.976,161.683 30.352 C 157.568 32.729,147.720 38.425,139.800 43.010 C 131.880 47.595,123.420 52.448,121.000 53.794 C 118.580 55.140,111.601 59.164,105.490 62.737 C 99.380 66.310,89.570 71.987,83.690 75.354 C 69.008 83.760,33.611 104.259,28.000 107.605 C 23.223 110.454,21.410 112.022,20.145 114.400 C 19.189 116.196,19.019 313.011,19.969 316.400 C 20.680 318.931,23.275 321.271,28.810 324.369 C 31.335 325.782,37.810 329.494,43.200 332.616 C 59.165 341.867,62.743 343.931,76.800 352.009 C 84.170 356.244,92.720 361.189,95.800 362.998 C 109.737 371.185,118.389 376.199,125.800 380.385 C 130.200 382.871,136.320 386.387,139.400 388.199 C 142.480 390.012,150.490 394.643,157.200 398.492 C 172.583 407.315,178.139 410.533,186.400 415.406 C 190.030 417.547,193.620 419.654,194.378 420.087 C 196.476 421.285,199.497 421.461,201.632 420.509 C 203.822 419.533,243.433 396.863,263.000 385.387 C 266.080 383.581,273.280 379.413,279.000 376.125 C 284.720 372.837,291.785 368.764,294.700 367.073 C 297.615 365.383,302.385 362.617,305.300 360.926 C 308.215 359.236,316.450 354.492,323.600 350.385 C 330.750 346.278,339.120 341.434,342.200 339.621 C 345.280 337.808,353.187 333.237,359.770 329.462 C 373.256 321.732,375.153 320.260,376.178 316.735 C 377.216 313.163,376.926 117.323,375.879 115.000 C 374.445 111.820,373.438 111.077,360.597 103.729 C 348.583 96.855,337.072 90.202,330.600 86.391 C 327.520 84.577,318.880 79.586,311.400 75.298 C 303.920 71.011,295.460 66.112,292.600 64.413 C 289.740 62.713,286.320 60.730,285.000 60.005 C 282.270 58.506,266.856 49.645,257.600 44.253 C 254.190 42.266,249.060 39.302,246.200 37.666 C 243.340 36.029,235.908 31.732,229.684 28.116 C 199.711 10.701,199.160 10.442,195.000 11.761 M202.905 16.127 C 204.497 16.921,209.220 19.584,213.400 22.045 C 217.580 24.506,223.597 28.031,226.772 29.878 C 229.946 31.726,234.266 34.284,236.372 35.563 C 238.477 36.842,241.291 38.439,242.625 39.112 C 243.958 39.785,247.468 41.818,250.425 43.631 C 255.222 46.572,261.141 49.989,271.000 55.510 C 272.760 56.496,274.920 57.792,275.800 58.391 C 276.680 58.990,279.235 60.418,281.477 61.566 C 283.720 62.713,286.600 64.326,287.877 65.150 C 289.155 65.974,292.540 67.974,295.400 69.592 C 298.260 71.211,302.760 73.825,305.400 75.400 C 308.040 76.976,312.630 79.626,315.600 81.290 C 324.377 86.208,325.406 86.808,334.400 92.256 C 339.130 95.121,345.610 98.869,348.800 100.584 C 351.990 102.299,356.587 104.829,359.016 106.205 C 361.444 107.581,365.079 109.535,367.094 110.547 C 371.624 112.822,373.339 114.296,374.274 116.719 C 375.386 119.601,375.408 313.543,374.297 316.422 C 372.967 319.867,373.701 319.384,341.200 338.189 C 338.450 339.780,331.880 343.562,326.600 346.592 C 321.320 349.622,313.220 354.302,308.600 356.990 C 303.980 359.679,297.590 363.377,294.400 365.208 C 273.105 377.433,267.384 380.730,261.933 383.919 C 248.315 391.887,217.252 409.814,207.600 415.275 C 199.814 419.681,196.734 419.362,192.921 413.754 C 192.084 412.524,190.539 410.639,189.487 409.565 C 187.621 407.660,187.590 407.588,188.216 406.631 C 188.570 406.092,188.815 405.324,188.761 404.925 C 188.707 404.526,189.142 403.148,189.726 401.862 C 191.795 397.314,191.714 399.776,191.758 339.600 C 191.800 283.668,191.809 282.987,192.600 281.896 C 195.136 278.394,209.667 274.713,212.224 276.924 C 213.822 278.306,213.983 280.998,213.992 306.434 C 214.011 362.688,214.443 388.745,215.379 390.139 C 217.007 392.564,223.465 390.770,230.785 385.859 C 232.223 384.894,234.210 383.626,235.200 383.041 C 236.190 382.455,238.103 381.278,239.450 380.423 C 240.798 379.569,244.212 377.671,247.036 376.205 C 249.861 374.739,253.168 372.916,254.386 372.155 C 255.604 371.394,258.760 369.408,261.400 367.741 C 264.040 366.074,269.110 363.122,272.667 361.181 C 276.224 359.240,279.824 357.224,280.667 356.703 C 281.510 356.181,283.190 355.249,284.400 354.631 C 285.610 354.013,287.487 352.875,288.572 352.103 C 289.657 351.330,293.167 349.342,296.372 347.686 C 299.577 346.029,303.550 343.741,305.200 342.601 C 306.850 341.461,310.360 339.304,313.000 337.808 C 315.640 336.312,318.790 334.424,320.000 333.612 C 321.210 332.800,324.000 331.178,326.200 330.007 C 341.569 321.824,341.788 321.609,344.154 312.297 C 346.581 302.745,348.722 299.489,358.465 290.530 C 362.401 286.911,362.065 294.211,361.924 215.326 C 361.809 151.255,361.750 146.090,361.119 144.697 C 359.623 141.395,356.663 142.011,347.582 147.515 C 337.988 153.330,336.808 153.901,333.404 154.374 C 327.767 155.158,320.676 154.718,308.200 152.808 C 305.340 152.371,300.985 151.847,298.523 151.645 C 292.861 151.181,291.917 150.671,293.576 148.973 C 295.372 147.134,294.106 147.911,310.400 138.654 C 315.788 135.593,318.489 134.006,324.840 130.171 C 326.688 129.055,329.820 127.233,331.800 126.123 C 333.780 125.013,337.258 123.058,339.528 121.780 C 351.582 114.993,350.827 107.343,337.380 100.010 C 331.731 96.930,320.640 90.706,319.200 89.808 C 317.816 88.945,308.045 83.370,303.400 80.793 C 302.080 80.061,299.110 78.353,296.800 76.997 C 294.490 75.641,290.800 73.485,288.600 72.204 C 286.400 70.924,282.260 68.480,279.400 66.775 C 276.540 65.069,272.490 62.697,270.400 61.503 C 268.310 60.309,265.700 58.788,264.600 58.124 C 260.258 55.499,252.753 51.192,248.000 48.597 C 245.250 47.095,239.040 43.576,234.200 40.776 C 217.534 31.136,217.921 31.240,209.191 34.059 L 203.800 35.800 197.600 35.794 L 191.400 35.789 186.491 34.094 C 177.832 31.105,176.566 31.359,164.569 38.483 C 161.066 40.563,156.269 43.330,153.910 44.632 C 148.623 47.550,139.615 52.713,135.600 55.126 C 131.087 57.839,111.079 69.438,107.200 71.590 C 103.435 73.680,99.544 76.041,96.800 77.900 C 95.810 78.571,92.750 80.332,90.000 81.812 C 87.250 83.293,82.930 85.714,80.400 87.193 C 77.870 88.671,74.220 90.730,72.289 91.767 C 65.873 95.214,51.420 104.032,50.065 105.325 C 44.333 110.798,46.454 116.636,56.200 122.214 C 58.400 123.473,62.270 125.724,64.800 127.216 C 67.330 128.708,72.730 131.803,76.800 134.093 C 95.410 144.566,103.769 149.515,104.974 150.773 C 107.047 152.937,104.661 153.974,97.570 153.990 C 93.467 154.000,86.131 154.964,85.478 155.580 C 84.856 156.167,82.049 155.306,80.446 154.036 C 79.555 153.331,77.515 152.018,75.913 151.120 C 74.311 150.221,72.100 148.975,71.000 148.350 C 69.900 147.726,68.746 147.211,68.436 147.207 C 68.126 147.203,66.955 146.507,65.834 145.661 C 64.713 144.814,63.166 143.798,62.398 143.401 C 61.629 143.005,60.460 142.273,59.800 141.774 C 59.140 141.275,56.170 139.700,53.200 138.275 C 50.230 136.850,46.720 135.025,45.400 134.220 C 41.640 131.926,37.354 130.006,35.393 129.737 C 34.407 129.602,33.600 129.333,33.600 129.140 C 33.600 128.469,31.076 127.258,29.117 126.989 C 28.035 126.840,27.231 126.635,27.332 126.534 C 27.433 126.433,27.085 125.885,26.558 125.317 C 26.031 124.748,25.600 123.797,25.600 123.203 C 25.600 122.609,25.296 121.514,24.925 120.771 C 22.145 115.197,24.565 112.363,38.600 104.753 C 42.340 102.725,47.290 99.955,49.600 98.598 C 51.910 97.240,58.570 93.369,64.400 89.996 C 70.230 86.623,77.790 82.244,81.200 80.266 C 84.610 78.287,90.010 75.180,93.200 73.362 C 96.390 71.543,103.845 67.208,109.767 63.728 C 119.738 57.867,122.920 56.054,128.200 53.222 C 130.040 52.235,135.174 49.313,146.000 43.092 C 148.310 41.764,152.180 39.469,154.600 37.991 C 157.020 36.513,161.520 33.901,164.600 32.186 C 167.680 30.470,171.460 28.225,173.000 27.196 C 174.540 26.167,178.320 23.923,181.400 22.208 C 184.480 20.493,188.418 18.276,190.152 17.280 C 196.062 13.886,198.051 13.706,202.905 16.127 M58.341 154.003 C 72.622 156.137,75.941 158.427,79.345 168.492 C 80.330 171.404,80.455 267.876,79.479 271.208 C 77.536 277.834,74.070 280.048,64.442 280.812 C 54.910 281.568,50.270 280.852,46.568 278.054 C 42.257 274.796,42.347 276.203,42.484 213.800 L 42.600 161.400 43.724 159.110 C 46.418 153.626,49.232 152.642,58.341 154.003 M251.880 155.218 C 257.803 156.545,259.365 159.296,258.174 166.301 C 256.529 175.977,254.539 177.717,244.310 178.422 C 241.169 178.639,234.640 179.251,229.800 179.782 C 224.960 180.314,219.694 180.869,218.099 181.015 C 212.243 181.553,209.944 185.505,209.845 195.200 C 209.754 204.106,209.861 204.148,232.678 204.244 L 249.956 204.316 251.657 205.258 C 256.512 207.948,256.940 219.918,252.320 223.806 C 249.404 226.260,237.699 227.001,226.400 225.448 C 209.828 223.170,208.189 225.139,209.753 245.444 C 211.063 262.440,210.047 271.056,206.447 273.480 C 202.256 276.304,183.284 277.600,180.174 275.275 C 177.409 273.209,177.400 273.155,177.400 259.400 L 177.400 247.000 178.884 243.594 C 181.412 237.792,181.398 237.955,181.396 214.400 C 181.394 194.504,181.342 192.868,180.653 191.126 C 178.945 186.811,177.819 188.944,176.980 198.082 C 176.001 208.754,175.132 211.368,169.363 221.000 C 167.386 224.300,165.517 227.501,165.210 228.114 C 161.888 234.727,150.715 238.431,132.246 239.041 C 123.963 239.315,123.437 239.379,122.446 240.230 L 121.400 241.130 121.293 252.865 C 121.073 277.108,119.683 280.008,107.931 280.754 C 85.512 282.177,83.207 279.392,83.135 250.800 C 83.117 243.750,83.538 191.912,83.712 179.800 L 83.826 171.800 86.446 166.388 C 90.631 157.745,91.276 157.397,103.800 157.030 C 107.980 156.908,113.200 156.531,115.400 156.192 C 124.624 154.773,125.504 154.709,132.438 154.948 C 152.638 155.645,165.938 161.745,173.563 173.810 C 174.532 175.345,175.750 177.275,176.268 178.100 C 178.327 181.374,179.010 179.649,179.557 169.800 C 180.264 157.086,182.062 155.214,194.000 154.769 C 203.992 154.397,249.803 154.752,251.880 155.218 M311.893 155.410 C 338.636 157.843,344.778 162.100,339.576 174.597 C 336.706 181.490,333.169 182.981,325.348 180.596 C 305.000 174.389,288.683 177.004,288.074 186.569 C 287.631 193.534,290.750 196.062,306.368 201.391 C 337.558 212.034,346.569 219.706,348.374 237.155 C 351.333 265.749,324.422 283.079,285.800 277.453 C 261.895 273.971,254.775 266.986,261.499 253.614 C 264.540 247.566,267.505 246.884,276.800 250.097 C 299.822 258.054,319.443 254.646,318.721 242.816 C 318.297 235.873,314.463 232.938,298.600 227.413 C 281.210 221.357,276.995 219.445,271.000 214.890 C 262.410 208.365,259.621 202.562,259.607 191.190 C 259.594 180.650,260.483 176.721,264.082 171.393 C 273.052 158.115,287.722 153.211,311.893 155.410 M121.000 179.361 C 117.933 180.715,117.589 183.166,119.613 189.227 C 120.750 192.630,120.901 193.661,121.151 199.747 C 121.542 209.246,122.439 209.666,136.571 206.981 C 138.674 206.581,143.440 204.143,145.168 202.582 C 151.750 196.635,148.454 183.737,139.515 180.460 C 134.981 178.798,123.781 178.133,121.000 179.361 M257.084 180.400 C 258.326 182.863,257.467 195.577,255.847 198.709 C 253.501 203.247,217.058 204.106,213.597 199.705 C 211.097 196.527,213.248 192.144,217.946 190.842 C 219.534 190.402,221.322 189.788,221.917 189.479 C 222.513 189.169,225.085 187.811,227.634 186.459 C 234.692 182.717,237.143 181.976,245.659 181.008 C 248.597 180.673,251.900 180.143,253.000 179.829 C 255.634 179.076,256.476 179.194,257.084 180.400 M223.505 227.445 C 227.466 228.724,229.051 231.175,227.656 233.864 C 225.720 237.596,217.945 245.197,216.062 245.199 C 211.055 245.205,209.025 229.765,213.728 227.445 C 215.446 226.598,220.883 226.598,223.505 227.445 M29.053 302.625 C 29.611 303.477,29.640 303.949,29.253 305.877 C 28.726 308.500,28.651 313.060,29.129 313.356 C 29.474 313.569,30.800 312.226,30.800 311.663 C 30.800 311.339,31.979 310.669,33.262 310.263 C 34.243 309.953,35.163 311.219,35.444 313.265 C 35.660 314.847,35.799 315.051,36.557 314.906 C 38.243 314.584,40.020 319.313,38.706 320.627 C 38.395 320.938,35.600 319.948,35.600 319.527 C 35.600 318.719,32.763 316.454,30.667 315.589 C 27.828 314.417,27.761 314.295,27.442 309.800 C 27.301 307.820,27.079 304.968,26.949 303.462 C 26.689 300.464,27.441 300.164,29.053 302.625 " stroke="none" fill="#52aeb1" fill-rule="evenodd"></path>
        <path id="path1" d="M0.000 214.200 L 0.000 428.400 200.000 428.400 L 400.000 428.400 400.000 214.200 L 400.000 0.000 200.000 0.000 L 0.000 0.000 0.000 214.200 M202.600 6.434 C 203.718 6.853,206.335 8.203,208.416 9.435 C 210.497 10.667,215.530 13.574,219.600 15.895 C 223.670 18.216,230.253 22.046,234.230 24.406 C 238.206 26.766,244.128 30.175,247.391 31.982 C 250.654 33.788,254.601 36.039,256.162 36.983 C 257.723 37.927,261.340 40.002,264.200 41.595 C 267.060 43.188,272.460 46.335,276.200 48.588 C 279.940 50.842,284.980 53.771,287.400 55.097 C 289.820 56.423,294.500 59.084,297.800 61.010 C 301.100 62.936,309.830 67.968,317.200 72.192 C 324.570 76.416,336.270 83.207,343.200 87.283 C 350.130 91.359,358.500 96.186,361.800 98.010 C 375.324 105.487,379.136 108.315,380.878 112.163 L 381.800 114.200 381.800 215.800 C 381.800 332.432,382.263 319.874,377.803 324.200 C 375.826 326.118,373.007 327.920,363.764 333.174 C 349.783 341.121,341.825 345.719,333.600 350.602 C 330.190 352.626,324.430 355.951,320.800 357.992 C 317.170 360.032,311.860 363.089,309.000 364.786 C 306.140 366.483,301.010 369.465,297.600 371.413 C 279.732 381.618,272.954 385.535,267.263 388.945 C 263.819 391.009,256.590 395.209,251.200 398.279 C 245.810 401.348,237.350 406.200,232.400 409.060 C 227.450 411.921,222.140 414.949,220.600 415.791 C 219.060 416.632,214.932 419.025,211.426 421.107 C 204.136 425.438,201.806 426.375,197.600 426.668 C 194.062 426.914,194.636 427.176,181.200 419.199 C 176.470 416.390,170.890 413.149,168.800 411.994 C 166.710 410.840,162.030 408.146,158.400 406.007 C 154.770 403.868,149.460 400.796,146.600 399.179 C 143.740 397.563,138.160 394.326,134.200 391.986 C 130.240 389.646,122.680 385.274,117.400 382.269 C 112.120 379.265,104.740 375.025,101.000 372.848 C 92.313 367.791,85.327 363.745,75.800 358.255 C 53.931 345.651,49.980 343.362,42.800 339.135 C 38.510 336.609,32.300 333.042,29.000 331.207 C 18.902 325.592,16.062 323.265,14.562 319.377 C 13.820 317.451,13.800 314.764,13.800 215.600 L 13.800 113.800 14.753 111.692 C 16.164 108.570,18.927 106.349,27.558 101.400 C 31.779 98.980,38.240 95.225,41.916 93.056 C 45.592 90.887,51.576 87.444,55.213 85.406 C 58.851 83.368,65.601 79.461,70.213 76.722 C 74.826 73.984,80.040 70.964,81.800 70.010 C 83.560 69.056,87.520 66.798,90.600 64.993 C 97.799 60.773,115.299 50.658,132.752 40.630 C 140.315 36.284,147.605 32.058,148.952 31.239 C 150.298 30.419,152.840 28.969,154.600 28.015 C 156.360 27.061,161.670 23.998,166.400 21.208 C 194.944 4.368,195.964 3.952,202.600 6.434 M296.400 160.439 C 276.663 162.226,265.123 172.883,265.038 189.400 C 264.960 204.578,271.783 211.642,293.835 219.217 C 314.256 226.231,318.782 228.630,322.480 234.400 C 327.764 242.646,324.714 253.493,315.926 257.709 C 307.817 261.598,291.262 261.173,277.639 256.727 C 269.027 253.915,265.638 255.232,265.610 261.400 C 265.561 272.119,307.878 276.272,325.800 267.307 C 346.485 256.960,348.440 230.055,329.410 217.632 C 323.892 214.030,320.263 212.500,305.000 207.344 C 286.422 201.067,281.873 197.145,281.873 187.400 C 281.873 172.819,297.956 167.588,323.605 173.825 C 330.172 175.422,331.860 175.161,333.618 172.278 C 335.532 169.138,334.022 165.770,329.903 163.994 C 324.114 161.498,305.971 159.573,296.400 160.439 M56.952 161.547 C 54.634 161.959,53.246 162.995,52.376 164.961 C 51.469 167.012,51.072 263.769,51.957 267.046 C 53.526 272.853,66.838 273.724,69.600 268.200 L 70.600 266.200 70.714 217.629 C 70.835 165.744,70.836 165.753,68.879 163.777 C 66.906 161.785,61.398 160.755,56.952 161.547 M191.934 161.977 C 190.112 162.332,188.625 163.285,187.706 164.687 C 186.833 166.016,186.501 180.628,187.130 190.000 C 187.483 195.255,187.339 211.511,186.550 255.629 C 186.293 269.964,186.425 270.200,194.731 270.200 C 204.486 270.200,204.168 271.000,204.186 246.400 C 204.207 218.144,202.819 219.730,227.344 219.929 C 247.797 220.095,248.736 219.887,249.089 215.103 C 249.461 210.076,247.839 209.445,235.458 209.801 C 205.572 210.660,202.910 208.919,204.325 189.442 C 205.398 174.681,206.656 173.643,223.500 173.613 C 236.486 173.590,246.709 172.887,248.799 171.873 C 253.571 169.558,252.819 163.157,247.646 162.047 C 245.307 161.546,194.478 161.482,191.934 161.977 M108.400 162.412 C 95.829 162.749,95.049 163.028,93.660 167.684 C 92.917 170.170,92.444 257.494,93.136 264.388 C 93.757 270.578,94.866 271.400,102.600 271.400 C 112.036 271.400,111.729 272.025,112.033 252.200 C 112.373 230.070,112.498 229.872,126.141 229.965 C 145.732 230.099,157.015 226.779,163.011 219.116 C 174.611 204.290,174.113 181.259,161.975 171.284 C 151.818 162.938,143.048 161.486,108.400 162.412 M137.400 173.805 C 157.109 177.851,161.407 204.885,143.799 214.058 C 136.354 217.936,121.775 219.228,116.455 216.480 C 112.473 214.423,112.095 212.499,111.927 193.400 L 111.800 179.000 112.796 177.261 C 115.210 173.044,126.183 171.503,137.400 173.805 " stroke="none" fill="#f8fbfb" fill-rule="evenodd"></path>
        <path id="path2" d="M366.647 126.116 C 366.001 126.763,365.491 126.977,365.136 126.752 C 364.229 126.177,363.800 126.353,363.061 127.605 C 362.187 129.083,362.441 130.016,363.961 130.913 C 365.459 131.798,365.600 131.780,365.600 130.706 C 365.600 129.896,365.685 129.933,366.500 131.098 C 368.055 133.322,369.659 130.853,368.963 127.307 C 368.530 125.101,367.957 124.807,366.647 126.116 M367.859 298.198 C 367.458 298.599,366.693 299.619,366.160 300.464 C 365.220 301.953,364.079 302.614,364.545 301.400 C 365.082 300.000,363.436 301.209,361.299 303.785 C 360.803 304.382,360.288 305.307,360.154 305.839 C 360.021 306.372,359.763 306.899,359.581 307.012 C 357.913 308.043,354.450 314.870,354.413 317.200 C 354.401 317.970,354.127 319.472,353.804 320.537 C 352.753 323.999,354.757 324.224,359.067 321.129 C 360.826 319.865,362.203 319.006,366.377 316.569 C 368.585 315.280,368.888 314.230,369.080 307.231 C 369.289 299.601,368.952 297.106,367.859 298.198 M205.300 401.494 C 203.890 401.981,204.920 404.664,206.601 404.887 L 207.800 405.046 206.700 405.513 C 205.858 405.871,205.600 406.254,205.600 407.147 C 205.600 408.850,206.314 408.874,209.106 407.265 C 211.274 406.016,212.262 405.104,211.300 405.243 C 210.222 405.399,209.335 404.672,209.507 403.774 C 209.639 403.082,209.481 402.744,208.946 402.576 C 208.536 402.447,207.660 402.112,207.000 401.832 C 206.340 401.551,205.575 401.399,205.300 401.494 " stroke="none" fill="#367276" fill-rule="evenodd"></path>
        <path id="path3" d="M370.400 116.600 C 370.126 116.930,369.768 117.200,369.604 117.200 C 369.440 117.200,368.139 117.965,366.713 118.900 C 363.590 120.947,362.123 121.786,359.110 123.246 C 357.851 123.857,355.691 125.128,354.310 126.071 C 352.930 127.014,351.676 127.789,351.524 127.793 C 351.372 127.797,349.706 128.942,347.822 130.337 C 343.773 133.336,342.962 133.749,336.273 136.212 C 333.462 137.247,330.876 138.381,330.525 138.732 C 329.672 139.585,325.301 142.248,321.600 144.170 C 319.950 145.026,317.672 146.315,316.538 147.035 C 315.403 147.754,314.373 148.239,314.247 148.114 C 314.122 147.988,313.893 148.226,313.739 148.643 C 313.584 149.059,313.265 149.532,313.029 149.694 C 312.738 149.893,312.757 149.990,313.087 149.994 C 313.356 149.997,313.491 150.225,313.389 150.500 C 313.080 151.331,316.658 152.743,319.681 152.981 C 323.256 153.263,330.131 151.090,331.600 149.213 C 332.068 148.615,334.699 147.232,334.929 147.463 C 335.068 147.601,335.294 147.420,335.432 147.060 C 335.571 146.699,335.846 146.505,336.045 146.628 C 336.243 146.750,336.513 146.570,336.645 146.228 C 336.776 145.885,337.046 145.705,337.245 145.828 C 337.443 145.950,337.714 145.769,337.846 145.425 C 337.978 145.081,338.291 144.793,338.543 144.783 C 338.794 144.774,340.433 143.707,342.185 142.412 C 343.936 141.117,345.511 140.145,345.685 140.252 C 345.858 140.359,346.000 140.227,346.000 139.957 C 346.000 139.687,346.117 139.584,346.260 139.727 C 346.404 139.870,346.777 139.675,347.090 139.294 C 347.403 138.912,347.523 138.860,347.357 139.179 C 347.175 139.529,347.538 139.414,348.279 138.886 C 349.703 137.872,354.970 135.700,356.883 135.337 C 357.607 135.200,358.423 134.912,358.696 134.698 C 359.324 134.205,361.735 134.647,363.581 135.594 C 366.362 137.021,367.738 139.259,368.409 143.450 C 368.833 146.098,369.026 282.457,368.608 283.696 C 368.514 283.973,368.357 285.655,368.259 287.434 C 367.976 292.551,366.946 294.232,361.290 298.813 C 355.745 303.304,352.323 308.764,350.618 315.841 C 348.830 323.258,347.459 325.405,342.000 329.335 C 340.130 330.681,337.532 332.639,336.226 333.686 C 334.920 334.734,333.030 335.888,332.026 336.252 C 328.040 337.698,322.795 340.534,318.823 343.394 C 316.525 345.047,314.488 346.400,314.295 346.400 C 314.102 346.400,313.159 346.940,312.200 347.600 C 311.241 348.260,310.299 348.800,310.106 348.800 C 308.685 348.800,293.209 357.283,288.626 360.574 C 285.738 362.648,282.391 364.822,281.188 365.404 C 278.857 366.532,278.146 366.859,273.885 368.760 C 272.392 369.427,269.782 371.035,268.085 372.334 C 266.388 373.634,263.380 375.557,261.400 376.607 C 256.984 378.949,250.221 382.795,247.000 384.795 C 245.680 385.615,241.233 388.109,237.117 390.337 C 233.002 392.565,228.614 395.041,227.366 395.839 C 217.235 402.320,209.552 400.876,207.424 392.091 C 206.388 387.815,205.836 379.001,206.338 374.764 C 206.917 369.876,206.994 286.233,206.419 286.588 C 206.190 286.730,206.101 285.965,206.197 284.656 C 206.319 282.981,205.786 279.075,205.634 280.529 C 205.615 280.709,205.304 280.561,204.942 280.200 C 204.190 279.447,202.675 279.668,201.666 280.677 C 200.854 281.488,200.926 275.632,200.812 350.782 L 200.715 414.564 201.558 415.247 C 202.426 415.950,202.694 415.968,204.400 415.444 C 206.292 414.862,208.020 413.952,210.656 412.147 C 212.110 411.152,214.312 409.796,215.550 409.133 C 216.787 408.471,218.520 407.495,219.400 406.963 C 220.280 406.432,221.315 405.887,221.700 405.752 C 222.085 405.617,222.400 405.360,222.400 405.180 C 222.400 405.001,222.759 404.740,223.198 404.601 C 223.636 404.462,224.221 404.134,224.498 403.874 C 224.774 403.613,227.297 402.274,230.105 400.897 C 235.444 398.280,244.085 393.276,248.576 390.202 C 250.023 389.211,251.319 388.400,251.456 388.400 C 251.931 388.400,261.825 382.677,265.200 380.449 C 267.070 379.215,270.626 377.177,273.103 375.920 C 275.580 374.663,278.402 373.086,279.375 372.417 C 280.348 371.748,281.337 371.200,281.572 371.200 C 281.807 371.200,282.000 371.049,282.000 370.865 C 282.000 370.681,282.994 370.028,284.209 369.413 C 285.423 368.799,286.502 368.159,286.605 367.992 C 286.708 367.825,287.287 367.564,287.892 367.413 C 288.497 367.261,289.084 367.014,289.196 366.864 C 289.308 366.714,290.390 366.081,291.600 365.456 C 295.048 363.676,299.330 361.276,304.656 358.140 C 307.710 356.341,312.212 353.391,312.333 353.109 C 312.407 352.939,312.649 352.800,312.872 352.800 C 313.094 352.800,313.814 352.417,314.471 351.949 C 316.108 350.784,318.532 349.418,321.471 348.006 C 322.829 347.353,324.043 346.654,324.167 346.454 C 324.291 346.253,324.889 345.964,325.496 345.812 C 326.521 345.555,331.149 342.965,331.600 342.396 C 332.334 341.470,336.601 338.784,338.600 337.991 C 339.920 337.467,341.270 336.818,341.600 336.550 C 341.930 336.282,342.688 335.941,343.284 335.792 C 343.880 335.643,344.577 335.269,344.833 334.961 C 345.089 334.652,345.577 334.400,345.917 334.400 C 346.258 334.400,346.821 334.148,347.169 333.840 C 347.516 333.532,348.724 332.767,349.853 332.140 C 352.081 330.902,356.736 328.162,358.245 327.200 C 358.762 326.870,361.554 325.186,364.449 323.458 C 374.665 317.358,374.164 318.989,373.851 292.880 C 373.720 281.946,373.648 246.360,373.693 213.800 C 373.822 118.472,373.829 119.782,373.177 118.513 C 372.121 116.457,371.101 115.755,370.400 116.600 M368.963 127.307 C 369.659 130.853,368.055 133.322,366.500 131.098 C 365.685 129.933,365.600 129.896,365.600 130.706 C 365.600 131.780,365.459 131.798,363.961 130.913 C 362.441 130.016,362.187 129.083,363.061 127.605 C 363.800 126.353,364.229 126.177,365.136 126.752 C 365.491 126.977,366.001 126.763,366.647 126.116 C 367.957 124.807,368.530 125.101,368.963 127.307 M251.417 184.124 C 250.986 184.386,250.388 184.825,250.088 185.100 C 249.788 185.375,249.377 185.600,249.174 185.600 C 248.972 185.600,248.400 185.944,247.903 186.366 C 246.419 187.624,241.953 190.673,239.600 192.034 C 233.035 195.833,229.743 198.194,230.426 198.616 C 230.662 198.762,230.750 199.153,230.623 199.485 C 230.462 199.905,230.575 200.018,230.995 199.857 C 231.328 199.729,231.600 199.781,231.600 199.971 C 231.600 201.046,240.086 201.133,243.054 200.088 C 245.752 199.137,253.564 194.214,254.786 192.693 C 255.909 191.295,256.902 187.271,256.310 186.518 C 256.102 186.252,256.043 185.854,256.180 185.632 C 257.033 184.253,253.200 183.039,251.417 184.124 M215.173 228.268 C 212.856 229.242,212.196 231.347,213.255 234.386 C 214.139 236.922,219.381 234.352,220.373 230.895 C 220.991 228.741,217.838 227.148,215.173 228.268 M369.080 307.231 C 368.888 314.230,368.585 315.280,366.377 316.569 C 362.203 319.006,360.826 319.865,359.067 321.129 C 354.757 324.224,352.753 323.999,353.804 320.537 C 354.127 319.472,354.401 317.970,354.413 317.200 C 354.450 314.870,357.913 308.043,359.581 307.012 C 359.763 306.899,360.021 306.372,360.154 305.839 C 360.288 305.307,360.803 304.382,361.299 303.785 C 363.436 301.209,365.082 300.000,364.545 301.400 C 364.079 302.614,365.220 301.953,366.160 300.464 C 368.875 296.162,369.353 297.268,369.080 307.231 M208.946 402.576 C 209.481 402.744,209.639 403.082,209.507 403.774 C 209.335 404.672,210.222 405.399,211.300 405.243 C 212.262 405.104,211.274 406.016,209.106 407.265 C 206.314 408.874,205.600 408.850,205.600 407.147 C 205.600 406.254,205.858 405.871,206.700 405.513 L 207.800 405.046 206.601 404.887 C 205.216 404.703,204.815 404.222,204.806 402.733 C 204.799 401.424,205.430 401.164,207.000 401.832 C 207.660 402.112,208.536 402.447,208.946 402.576 " stroke="none" fill="#3c7c7a" fill-rule="evenodd"></path>
        <path id="path4" d="M193.579 9.550 C 191.655 10.303,180.990 16.290,168.000 23.909 C 156.821 30.466,150.514 34.113,126.000 48.195 C 114.010 55.083,98.530 63.998,91.600 68.007 C 84.670 72.015,74.320 77.999,68.600 81.305 C 62.880 84.610,53.970 89.778,48.800 92.788 C 43.630 95.799,37.690 99.222,35.600 100.395 C 22.309 107.857,18.963 110.313,17.729 113.511 C 17.031 115.321,17.000 119.633,17.000 216.000 L 17.000 316.600 17.946 318.504 C 19.319 321.269,21.908 323.368,28.636 327.174 C 31.916 329.029,39.370 333.337,45.200 336.746 C 51.030 340.155,57.870 344.115,60.400 345.546 C 62.930 346.976,75.710 354.353,88.800 361.938 C 101.890 369.523,118.540 379.152,125.800 383.335 C 133.060 387.519,144.040 393.848,150.200 397.400 C 156.360 400.952,165.000 405.934,169.400 408.472 C 173.800 411.009,180.550 414.943,184.400 417.215 C 199.040 425.852,197.594 425.807,210.789 418.036 C 213.325 416.542,221.790 411.669,229.600 407.207 C 244.964 398.428,254.501 392.919,267.000 385.599 C 271.400 383.023,278.870 378.694,283.600 375.979 C 288.330 373.265,295.980 368.861,300.600 366.194 C 305.220 363.527,313.950 358.495,320.000 355.014 C 326.050 351.532,337.390 344.967,345.200 340.425 C 353.010 335.883,362.245 330.554,365.722 328.583 C 376.077 322.714,378.039 320.675,378.832 314.956 C 379.627 309.216,379.108 116.472,378.292 114.427 C 376.614 110.226,376.333 110.023,356.400 98.603 C 348.810 94.255,339.630 88.943,336.000 86.800 C 332.370 84.656,324.450 80.062,318.400 76.590 C 312.350 73.118,303.170 67.810,298.000 64.795 C 292.830 61.779,286.890 58.357,284.800 57.190 C 282.710 56.024,277.220 52.875,272.600 50.192 C 259.744 42.728,254.034 39.434,246.400 35.080 C 242.550 32.884,235.800 28.978,231.400 26.400 C 199.764 7.866,198.884 7.474,193.579 9.550 M200.227 11.789 C 202.267 12.398,210.187 16.788,229.684 28.116 C 235.908 31.732,243.340 36.029,246.200 37.666 C 249.060 39.302,254.190 42.266,257.600 44.253 C 266.856 49.645,282.270 58.506,285.000 60.005 C 286.320 60.730,289.740 62.713,292.600 64.413 C 295.460 66.112,303.920 71.011,311.400 75.298 C 318.880 79.586,327.520 84.577,330.600 86.391 C 337.072 90.202,348.583 96.855,360.597 103.729 C 373.438 111.077,374.445 111.820,375.879 115.000 C 376.926 117.323,377.216 313.163,376.178 316.735 C 375.153 320.260,373.256 321.732,359.770 329.462 C 353.187 333.237,345.280 337.808,342.200 339.621 C 339.120 341.434,330.750 346.278,323.600 350.385 C 316.450 354.492,308.215 359.236,305.300 360.926 C 302.385 362.617,297.615 365.383,294.700 367.073 C 291.785 368.764,284.720 372.837,279.000 376.125 C 273.280 379.413,266.080 383.581,263.000 385.387 C 243.433 396.863,203.822 419.533,201.632 420.509 C 199.497 421.461,196.476 421.285,194.378 420.087 C 193.620 419.654,190.030 417.547,186.400 415.406 C 178.139 410.533,172.583 407.315,157.200 398.492 C 150.490 394.643,142.480 390.012,139.400 388.199 C 136.320 386.387,130.200 382.871,125.800 380.385 C 118.389 376.199,109.737 371.185,95.800 362.998 C 92.720 361.189,84.170 356.244,76.800 352.009 C 62.743 343.931,59.165 341.867,43.200 332.616 C 37.810 329.494,31.335 325.782,28.810 324.369 C 23.275 321.271,20.680 318.931,19.969 316.400 C 19.019 313.011,19.189 116.196,20.145 114.400 C 21.410 112.022,23.223 110.454,28.000 107.605 C 33.611 104.259,69.008 83.760,83.690 75.354 C 89.570 71.987,99.380 66.310,105.490 62.737 C 111.601 59.164,118.580 55.140,121.000 53.794 C 123.420 52.448,131.880 47.595,139.800 43.010 C 147.720 38.425,157.568 32.729,161.683 30.352 C 165.799 27.976,169.849 25.601,170.683 25.076 C 171.518 24.550,176.168 21.866,181.019 19.110 C 195.733 10.749,196.178 10.580,200.227 11.789 M49.535 153.673 C 47.413 154.238,45.015 156.481,43.724 159.110 L 42.600 161.400 42.484 213.800 C 42.347 276.203,42.257 274.796,46.568 278.054 C 50.270 280.852,54.910 281.568,64.442 280.812 C 74.070 280.048,77.536 277.834,79.479 271.208 C 80.455 267.876,80.330 171.404,79.345 168.492 C 77.407 162.763,74.106 158.310,70.669 156.789 C 65.959 154.706,52.892 152.779,49.535 153.673 M194.000 154.769 C 182.062 155.214,180.264 157.086,179.557 169.800 C 179.150 177.132,178.705 179.600,177.790 179.600 C 177.472 179.600,176.787 178.925,176.268 178.100 C 175.750 177.275,174.532 175.345,173.563 173.810 C 165.938 161.745,152.638 155.645,132.438 154.948 C 125.504 154.709,124.624 154.773,115.400 156.192 C 113.200 156.531,107.980 156.908,103.800 157.030 C 91.276 157.397,90.631 157.745,86.446 166.388 L 83.826 171.800 83.712 179.800 C 83.538 191.912,83.117 243.750,83.135 250.800 C 83.207 279.392,85.512 282.177,107.931 280.754 C 119.683 280.008,121.073 277.108,121.293 252.865 L 121.400 241.130 122.446 240.230 C 123.437 239.379,123.963 239.315,132.246 239.041 C 150.715 238.431,161.888 234.727,165.210 228.114 C 165.517 227.501,167.386 224.300,169.363 221.000 C 175.132 211.368,176.001 208.754,176.980 198.082 C 177.819 188.944,178.945 186.811,180.653 191.126 C 181.342 192.868,181.394 194.504,181.396 214.400 C 181.398 237.955,181.412 237.792,178.884 243.594 L 177.400 247.000 177.400 259.400 C 177.400 273.155,177.409 273.209,180.174 275.275 C 183.284 277.600,202.256 276.304,206.447 273.480 C 210.047 271.056,211.063 262.440,209.753 245.444 C 208.189 225.139,209.828 223.170,226.400 225.448 C 237.699 227.001,249.404 226.260,252.320 223.806 C 256.940 219.918,256.512 207.948,251.657 205.258 L 249.956 204.316 232.678 204.244 C 209.861 204.148,209.754 204.106,209.845 195.200 C 209.944 185.505,212.243 181.553,218.099 181.015 C 219.694 180.869,224.960 180.314,229.800 179.782 C 234.640 179.251,241.169 178.639,244.310 178.422 C 254.539 177.717,256.529 175.977,258.174 166.301 C 259.365 159.296,257.803 156.545,251.880 155.218 C 249.803 154.752,203.992 154.397,194.000 154.769 M291.548 155.415 C 274.048 158.142,261.708 168.571,260.016 182.062 C 257.979 198.307,260.981 207.280,271.000 214.890 C 276.995 219.445,281.210 221.357,298.600 227.413 C 314.463 232.938,318.297 235.873,318.721 242.816 C 319.443 254.646,299.822 258.054,276.800 250.097 C 267.505 246.884,264.540 247.566,261.499 253.614 C 254.775 266.986,261.895 273.971,285.800 277.453 C 324.422 283.079,351.333 265.749,348.374 237.155 C 346.569 219.706,337.558 212.034,306.368 201.391 C 290.750 196.062,287.631 193.534,288.074 186.569 C 288.683 177.004,305.000 174.389,325.348 180.596 C 333.169 182.981,336.706 181.490,339.576 174.597 C 342.939 166.517,340.703 161.431,332.542 158.597 C 324.746 155.890,300.553 154.012,291.548 155.415 M57.949 156.224 C 70.950 158.133,74.932 160.977,76.374 169.381 C 77.086 173.530,76.896 268.691,76.170 271.139 C 74.407 277.090,70.752 278.565,59.200 277.990 C 51.646 277.614,50.342 277.251,47.942 274.854 C 45.013 271.929,45.174 275.491,45.293 216.131 L 45.400 162.600 46.308 160.354 C 47.418 157.612,48.241 156.827,50.700 156.165 C 53.172 155.500,53.008 155.499,57.949 156.224 M318.920 158.379 C 336.263 160.636,341.006 164.640,336.949 173.599 C 334.447 179.125,332.556 179.671,323.783 177.403 C 300.384 171.353,285.400 175.256,285.400 187.400 C 285.400 195.491,288.860 198.264,306.350 204.189 C 337.004 214.575,345.802 222.752,345.743 240.800 C 345.657 267.349,318.588 281.306,281.400 273.975 C 264.020 270.548,258.792 265.203,263.600 255.774 C 266.136 250.801,268.548 250.164,275.739 252.570 C 301.528 261.199,321.392 257.208,321.395 243.400 C 321.397 234.532,317.220 231.115,298.200 224.427 C 282.261 218.823,277.979 216.911,273.109 213.224 C 264.285 206.544,261.793 201.014,262.103 188.800 C 262.728 164.237,282.516 153.642,318.920 158.379 M142.212 158.565 C 162.992 162.074,174.469 173.226,174.423 189.865 C 174.383 204.519,173.072 210.144,167.716 218.634 C 166.617 220.375,165.065 222.994,164.266 224.452 C 159.877 232.470,143.297 237.444,125.151 236.187 L 121.301 235.921 119.951 237.127 L 118.600 238.333 118.389 254.267 C 118.152 272.173,117.932 273.597,115.070 275.769 C 111.148 278.746,96.759 279.224,91.289 276.559 C 86.403 274.178,86.448 274.695,86.433 220.200 C 86.419 171.418,86.192 174.434,90.588 164.967 C 92.933 159.917,93.262 159.809,108.000 159.207 C 114.050 158.960,120.440 158.506,122.200 158.199 C 126.206 157.499,137.079 157.698,142.212 158.565 M251.321 158.027 C 254.576 158.931,255.400 160.232,255.400 164.468 C 255.400 173.004,253.073 175.336,243.888 176.008 C 240.979 176.220,236.620 176.589,234.200 176.827 C 231.780 177.066,226.290 177.403,222.000 177.577 C 213.536 177.920,211.987 178.273,210.466 180.207 C 207.560 183.902,206.271 197.479,208.375 202.237 C 210.174 206.304,211.308 206.519,231.469 206.612 C 252.131 206.707,252.219 206.736,252.700 213.532 C 253.337 222.523,248.101 224.750,229.915 223.223 C 216.978 222.137,211.625 222.614,209.321 225.057 C 207.009 227.508,206.954 228.194,207.399 249.000 C 207.819 268.573,207.342 270.853,202.488 272.490 C 199.415 273.526,192.601 274.056,188.210 273.601 C 180.417 272.793,180.039 272.108,180.028 258.800 C 180.020 248.975,179.825 250.125,182.837 242.200 C 183.734 239.841,183.754 239.412,184.033 217.200 C 184.315 194.800,184.259 193.105,182.949 184.200 C 182.106 178.474,182.360 165.579,183.369 162.820 C 184.393 160.023,186.107 158.599,189.200 157.974 C 191.555 157.499,249.598 157.548,251.321 158.027 M122.383 176.372 C 115.808 176.932,113.995 180.065,116.228 187.005 C 118.024 192.586,118.386 195.045,118.393 201.740 C 118.404 211.387,118.833 211.888,126.712 211.442 C 144.361 210.445,152.818 203.843,151.192 192.334 C 149.523 180.515,139.424 174.919,122.383 176.372 M134.715 179.214 C 143.490 180.638,148.522 186.159,148.555 194.400 C 148.580 200.480,143.673 205.632,136.571 206.981 C 122.439 209.666,121.542 209.246,121.151 199.747 C 120.901 193.661,120.750 192.630,119.613 189.227 C 117.589 183.166,117.933 180.715,121.000 179.361 C 122.467 178.713,131.062 178.621,134.715 179.214 " stroke="none" fill="#94bfbf" fill-rule="evenodd"></path>
        <path id="path5" d="M194.752 14.931 C 193.956 15.227,191.886 16.285,190.152 17.280 C 188.418 18.276,184.480 20.493,181.400 22.208 C 178.320 23.923,174.540 26.167,173.000 27.196 C 171.460 28.225,167.680 30.470,164.600 32.186 C 161.520 33.901,157.020 36.513,154.600 37.991 C 152.180 39.469,148.310 41.764,146.000 43.092 C 135.174 49.313,130.040 52.235,128.200 53.222 C 122.920 56.054,119.738 57.867,109.767 63.728 C 103.845 67.208,96.390 71.543,93.200 73.362 C 90.010 75.180,84.610 78.287,81.200 80.266 C 77.790 82.244,70.230 86.623,64.400 89.996 C 58.570 93.369,51.910 97.240,49.600 98.598 C 47.290 99.955,42.340 102.725,38.600 104.753 C 24.565 112.363,22.145 115.197,24.925 120.771 C 25.296 121.514,25.600 122.609,25.600 123.203 C 25.600 123.797,26.031 124.748,26.558 125.317 C 27.085 125.885,27.433 126.433,27.332 126.534 C 27.231 126.635,28.035 126.840,29.117 126.989 C 31.076 127.258,33.600 128.469,33.600 129.140 C 33.600 129.333,34.407 129.602,35.393 129.737 C 37.354 130.006,41.640 131.926,45.400 134.220 C 46.720 135.025,50.230 136.850,53.200 138.275 C 56.170 139.700,59.140 141.275,59.800 141.774 C 60.460 142.273,61.629 143.005,62.398 143.401 C 63.166 143.798,64.713 144.814,65.834 145.661 C 66.955 146.507,68.126 147.203,68.436 147.207 C 68.746 147.211,69.900 147.726,71.000 148.350 C 72.100 148.975,74.311 150.221,75.913 151.120 C 77.515 152.018,79.555 153.331,80.446 154.036 C 82.049 155.306,84.856 156.167,85.478 155.580 C 86.131 154.964,93.467 154.000,97.570 153.990 C 104.661 153.974,107.047 152.937,104.974 150.773 C 103.769 149.515,95.410 144.566,76.800 134.093 C 72.730 131.803,67.330 128.708,64.800 127.216 C 62.270 125.724,58.400 123.473,56.200 122.214 C 46.454 116.636,44.333 110.798,50.065 105.325 C 51.420 104.032,65.873 95.214,72.289 91.767 C 74.220 90.730,77.870 88.671,80.400 87.193 C 82.930 85.714,87.250 83.293,90.000 81.812 C 92.750 80.332,95.810 78.571,96.800 77.900 C 99.544 76.041,103.435 73.680,107.200 71.590 C 111.079 69.438,131.087 57.839,135.600 55.126 C 139.615 52.713,148.623 47.550,153.910 44.632 C 156.269 43.330,161.066 40.563,164.569 38.483 C 176.566 31.359,177.832 31.105,186.491 34.094 L 191.400 35.789 197.600 35.794 L 203.800 35.800 209.191 34.059 C 217.921 31.240,217.534 31.136,234.200 40.776 C 239.040 43.576,245.250 47.095,248.000 48.597 C 252.753 51.192,260.258 55.499,264.600 58.124 C 265.700 58.788,268.310 60.309,270.400 61.503 C 272.490 62.697,276.540 65.069,279.400 66.775 C 282.260 68.480,286.400 70.924,288.600 72.204 C 290.800 73.485,294.490 75.641,296.800 76.997 C 299.110 78.353,302.080 80.061,303.400 80.793 C 308.045 83.370,317.816 88.945,319.200 89.808 C 320.640 90.706,331.731 96.930,337.380 100.010 C 350.827 107.343,351.582 114.993,339.528 121.780 C 337.258 123.058,333.780 125.013,331.800 126.123 C 329.820 127.233,326.688 129.055,324.840 130.171 C 318.489 134.006,315.788 135.593,310.400 138.654 C 294.106 147.911,295.372 147.134,293.576 148.973 C 291.917 150.671,292.861 151.181,298.523 151.645 C 300.985 151.847,305.340 152.371,308.200 152.808 C 320.676 154.718,327.767 155.158,333.404 154.374 C 336.808 153.901,337.988 153.330,347.582 147.515 C 356.663 142.011,359.623 141.395,361.119 144.697 C 361.750 146.090,361.809 151.255,361.924 215.326 C 362.065 294.211,362.401 286.911,358.465 290.530 C 348.722 299.489,346.581 302.745,344.154 312.297 C 341.788 321.609,341.569 321.824,326.200 330.007 C 324.000 331.178,321.210 332.800,320.000 333.612 C 318.790 334.424,315.640 336.312,313.000 337.808 C 310.360 339.304,306.850 341.461,305.200 342.601 C 303.550 343.741,299.577 346.029,296.372 347.686 C 293.167 349.342,289.657 351.330,288.572 352.103 C 287.487 352.875,285.610 354.013,284.400 354.631 C 283.190 355.249,281.510 356.181,280.667 356.703 C 279.824 357.224,276.224 359.240,272.667 361.181 C 269.110 363.122,264.040 366.074,261.400 367.741 C 258.760 369.408,255.604 371.394,254.386 372.155 C 253.168 372.916,249.861 374.739,247.036 376.205 C 244.212 377.671,240.798 379.569,239.450 380.423 C 238.103 381.278,236.190 382.455,235.200 383.041 C 234.210 383.626,232.223 384.894,230.785 385.859 C 223.465 390.770,217.007 392.564,215.379 390.139 C 214.443 388.745,214.011 362.688,213.992 306.434 C 213.983 280.998,213.822 278.306,212.224 276.924 C 209.667 274.713,195.136 278.394,192.600 281.896 C 191.809 282.987,191.800 283.668,191.758 339.600 C 191.714 399.776,191.795 397.314,189.726 401.862 C 189.142 403.148,188.707 404.526,188.761 404.925 C 188.815 405.324,188.570 406.092,188.216 406.631 C 187.590 407.588,187.621 407.660,189.487 409.565 C 190.539 410.639,192.084 412.524,192.921 413.754 C 196.734 419.362,199.814 419.681,207.600 415.275 C 217.252 409.814,248.315 391.887,261.933 383.919 C 267.384 380.730,273.105 377.433,294.400 365.208 C 297.590 363.377,303.980 359.679,308.600 356.990 C 313.220 354.302,321.320 349.622,326.600 346.592 C 331.880 343.562,338.450 339.780,341.200 338.189 C 373.701 319.384,372.967 319.867,374.297 316.422 C 375.408 313.543,375.386 119.601,374.274 116.719 C 373.339 114.296,371.624 112.822,367.094 110.547 C 365.079 109.535,361.444 107.581,359.016 106.205 C 356.587 104.829,351.990 102.299,348.800 100.584 C 345.610 98.869,339.130 95.121,334.400 92.256 C 325.406 86.808,324.377 86.208,315.600 81.290 C 312.630 79.626,308.040 76.976,305.400 75.400 C 302.760 73.825,298.260 71.211,295.400 69.592 C 292.540 67.974,289.155 65.974,287.877 65.150 C 286.600 64.326,283.720 62.713,281.477 61.566 C 279.235 60.418,276.680 58.990,275.800 58.391 C 274.920 57.792,272.760 56.496,271.000 55.510 C 261.141 49.989,255.222 46.572,250.425 43.631 C 247.468 41.818,243.958 39.785,242.625 39.112 C 241.291 38.439,238.477 36.842,236.372 35.563 C 234.266 34.284,229.946 31.726,226.772 29.878 C 223.597 28.031,217.580 24.506,213.400 22.045 C 200.675 14.554,198.250 13.629,194.752 14.931 M371.842 116.700 C 374.036 118.711,373.836 108.196,373.693 213.800 C 373.648 246.360,373.720 281.946,373.851 292.880 C 374.164 318.989,374.665 317.358,364.449 323.458 C 361.554 325.186,358.762 326.870,358.245 327.200 C 356.736 328.162,352.081 330.902,349.853 332.140 C 348.724 332.767,347.516 333.532,347.169 333.840 C 346.821 334.148,346.258 334.400,345.917 334.400 C 345.577 334.400,345.089 334.652,344.833 334.961 C 344.577 335.269,343.880 335.643,343.284 335.792 C 342.688 335.941,341.930 336.282,341.600 336.550 C 341.270 336.818,339.920 337.467,338.600 337.991 C 336.601 338.784,332.334 341.470,331.600 342.396 C 331.149 342.965,326.521 345.555,325.496 345.812 C 324.889 345.964,324.291 346.253,324.167 346.454 C 324.043 346.654,322.829 347.353,321.471 348.006 C 318.532 349.418,316.108 350.784,314.471 351.949 C 313.814 352.417,313.094 352.800,312.872 352.800 C 312.649 352.800,312.407 352.939,312.333 353.109 C 312.212 353.391,307.710 356.341,304.656 358.140 C 299.330 361.276,295.048 363.676,291.600 365.456 C 290.390 366.081,289.308 366.714,289.196 366.864 C 289.084 367.014,288.497 367.261,287.892 367.413 C 287.287 367.564,286.708 367.825,286.605 367.992 C 286.502 368.159,285.423 368.799,284.209 369.413 C 282.994 370.028,282.000 370.681,282.000 370.865 C 282.000 371.049,281.807 371.200,281.572 371.200 C 281.337 371.200,280.348 371.748,279.375 372.417 C 278.402 373.086,275.580 374.663,273.103 375.920 C 270.626 377.177,267.070 379.215,265.200 380.449 C 261.825 382.677,251.931 388.400,251.456 388.400 C 251.319 388.400,250.023 389.211,248.576 390.202 C 244.085 393.276,235.444 398.280,230.105 400.897 C 227.297 402.274,224.774 403.613,224.498 403.874 C 224.221 404.134,223.636 404.462,223.198 404.601 C 222.759 404.740,222.400 405.001,222.400 405.180 C 222.400 405.360,222.085 405.617,221.700 405.752 C 221.315 405.887,220.280 406.432,219.400 406.963 C 218.520 407.495,216.787 408.471,215.550 409.133 C 214.312 409.796,212.110 411.152,210.656 412.147 C 208.020 413.952,206.292 414.862,204.400 415.444 C 202.694 415.968,202.426 415.950,201.558 415.247 L 200.715 414.564 200.812 350.782 C 200.926 275.632,200.854 281.488,201.666 280.677 C 202.675 279.668,204.190 279.447,204.942 280.200 C 205.304 280.561,205.615 280.709,205.634 280.529 C 205.786 279.075,206.319 282.981,206.197 284.656 C 206.101 285.965,206.190 286.730,206.419 286.588 C 206.994 286.233,206.917 369.876,206.338 374.764 C 205.836 379.001,206.388 387.815,207.424 392.091 C 209.552 400.876,217.235 402.320,227.366 395.839 C 228.614 395.041,233.002 392.565,237.117 390.337 C 241.233 388.109,245.680 385.615,247.000 384.795 C 250.221 382.795,256.984 378.949,261.400 376.607 C 263.380 375.557,266.388 373.634,268.085 372.334 C 269.782 371.035,272.392 369.427,273.885 368.760 C 278.146 366.859,278.857 366.532,281.188 365.404 C 282.391 364.822,285.738 362.648,288.626 360.574 C 293.209 357.283,308.685 348.800,310.106 348.800 C 310.299 348.800,311.241 348.260,312.200 347.600 C 313.159 346.940,314.102 346.400,314.295 346.400 C 314.488 346.400,316.525 345.047,318.823 343.394 C 322.795 340.534,328.040 337.698,332.026 336.252 C 333.030 335.888,334.920 334.734,336.226 333.686 C 337.532 332.639,340.130 330.681,342.000 329.335 C 347.459 325.405,348.830 323.258,350.618 315.841 C 352.323 308.764,355.745 303.304,361.290 298.813 C 366.946 294.232,367.976 292.551,368.259 287.434 C 368.357 285.655,368.514 283.973,368.608 283.696 C 369.026 282.457,368.833 146.098,368.409 143.450 C 367.738 139.259,366.362 137.021,363.581 135.594 C 361.735 134.647,359.324 134.205,358.696 134.698 C 358.423 134.912,357.607 135.200,356.883 135.337 C 354.970 135.700,349.703 137.872,348.279 138.886 C 347.538 139.414,347.175 139.529,347.357 139.179 C 347.523 138.860,347.403 138.912,347.090 139.294 C 346.777 139.675,346.404 139.870,346.260 139.727 C 346.117 139.584,346.000 139.687,346.000 139.957 C 346.000 140.227,345.858 140.359,345.685 140.252 C 345.511 140.145,343.936 141.117,342.185 142.412 C 340.433 143.707,338.794 144.774,338.543 144.783 C 338.291 144.793,337.978 145.081,337.846 145.425 C 337.714 145.769,337.443 145.950,337.245 145.828 C 337.046 145.705,336.776 145.885,336.645 146.228 C 336.513 146.570,336.243 146.750,336.045 146.628 C 335.846 146.505,335.571 146.699,335.432 147.060 C 335.294 147.420,335.068 147.601,334.929 147.463 C 334.699 147.232,332.068 148.615,331.600 149.213 C 330.131 151.090,323.256 153.263,319.681 152.981 C 316.658 152.743,313.080 151.331,313.389 150.500 C 313.491 150.225,313.356 149.997,313.087 149.994 C 312.757 149.990,312.738 149.893,313.029 149.694 C 313.265 149.532,313.584 149.059,313.739 148.643 C 313.893 148.226,314.122 147.988,314.247 148.114 C 314.373 148.239,315.403 147.754,316.538 147.035 C 317.672 146.315,319.950 145.026,321.600 144.170 C 325.301 142.248,329.672 139.585,330.525 138.732 C 330.876 138.381,333.462 137.247,336.273 136.212 C 342.962 133.749,343.773 133.336,347.822 130.337 C 349.706 128.942,351.372 127.797,351.524 127.793 C 351.676 127.789,352.930 127.014,354.310 126.071 C 355.691 125.128,357.851 123.857,359.110 123.246 C 362.123 121.786,363.590 120.947,366.713 118.900 C 368.139 117.965,369.440 117.200,369.604 117.200 C 369.768 117.200,370.126 116.930,370.400 116.600 C 371.012 115.863,370.921 115.857,371.842 116.700 M253.000 179.829 C 251.900 180.143,248.597 180.673,245.659 181.008 C 237.143 181.976,234.692 182.717,227.634 186.459 C 225.085 187.811,222.513 189.169,221.917 189.479 C 221.322 189.788,219.534 190.402,217.946 190.842 C 211.645 192.588,210.488 199.827,216.297 201.153 C 225.490 203.251,248.115 202.764,254.119 200.339 C 256.423 199.408,257.586 194.871,257.587 186.800 C 257.589 179.266,257.174 178.636,253.000 179.829 M255.615 184.415 C 256.063 184.863,256.317 185.410,256.180 185.632 C 256.043 185.854,256.102 186.252,256.310 186.518 C 256.902 187.271,255.909 191.295,254.786 192.693 C 253.564 194.214,245.752 199.137,243.054 200.088 C 240.086 201.133,231.600 201.046,231.600 199.971 C 231.600 199.781,231.328 199.729,230.995 199.857 C 230.575 200.018,230.462 199.905,230.623 199.485 C 230.750 199.153,230.662 198.762,230.426 198.616 C 229.743 198.194,233.035 195.833,239.600 192.034 C 241.953 190.673,246.419 187.624,247.903 186.366 C 248.400 185.944,248.972 185.600,249.174 185.600 C 249.377 185.600,249.788 185.375,250.088 185.100 C 251.924 183.418,254.320 183.120,255.615 184.415 M213.728 227.445 C 209.025 229.765,211.055 245.205,216.062 245.199 C 219.323 245.195,228.977 233.832,228.030 231.113 C 226.794 227.569,218.034 225.322,213.728 227.445 M219.670 228.863 C 221.117 229.876,220.632 231.603,218.302 233.738 C 214.959 236.803,212.774 235.968,212.813 231.640 C 212.842 228.301,216.659 226.755,219.670 228.863 M26.949 303.462 C 27.079 304.968,27.301 307.820,27.442 309.800 C 27.761 314.295,27.828 314.417,30.667 315.589 C 32.763 316.454,35.600 318.719,35.600 319.527 C 35.600 319.948,38.395 320.938,38.706 320.627 C 40.020 319.313,38.243 314.584,36.557 314.906 C 35.799 315.051,35.660 314.847,35.444 313.265 C 35.163 311.219,34.243 309.953,33.262 310.263 C 31.979 310.669,30.800 311.339,30.800 311.663 C 30.800 312.226,29.474 313.569,29.129 313.356 C 28.651 313.060,28.726 308.500,29.253 305.877 C 29.752 303.394,29.285 302.102,27.556 301.176 C 26.725 300.732,26.715 300.770,26.949 303.462 " stroke="none" fill="#348286" fill-rule="evenodd"></path>
        <path id="path6" d="M50.700 156.165 C 48.241 156.827,47.418 157.612,46.308 160.354 L 45.400 162.600 45.293 216.131 C 45.174 275.491,45.013 271.929,47.942 274.854 C 50.342 277.251,51.646 277.614,59.200 277.990 C 70.752 278.565,74.407 277.090,76.170 271.139 C 76.896 268.691,77.086 173.530,76.374 169.381 C 74.932 160.977,70.950 158.133,57.949 156.224 C 53.008 155.499,53.172 155.500,50.700 156.165 M124.000 157.944 C 122.591 158.241,124.082 158.389,135.000 159.031 C 155.935 160.263,166.543 166.816,173.478 182.800 C 174.826 185.906,174.367 182.887,172.968 179.444 C 168.567 168.614,157.591 161.162,142.212 158.565 C 138.220 157.891,126.199 157.481,124.000 157.944 M189.200 157.974 C 186.103 158.599,184.387 160.027,183.377 162.820 C 182.577 165.031,182.132 176.172,182.635 181.402 C 182.953 184.709,183.000 184.240,183.220 175.600 C 183.482 165.284,183.901 163.018,185.921 160.978 C 188.353 158.522,187.238 158.612,217.000 158.478 C 250.091 158.329,251.637 158.477,254.600 162.089 L 255.676 163.400 255.439 162.000 C 255.149 160.289,253.405 158.605,251.321 158.027 C 249.598 157.548,191.555 157.499,189.200 157.974 M68.319 159.209 C 71.829 160.289,73.171 163.016,73.268 169.262 C 73.796 203.244,72.831 267.759,71.764 269.800 C 70.196 272.800,67.412 273.800,60.629 273.800 C 52.365 273.800,50.516 272.546,49.422 266.200 C 48.246 259.376,48.941 165.965,50.186 163.600 C 52.413 159.368,61.604 157.142,68.319 159.209 M88.442 169.798 C 86.478 174.686,86.451 175.385,86.447 220.000 C 86.442 274.690,86.398 274.176,91.289 276.559 C 96.759 279.224,111.148 278.746,115.070 275.769 C 117.932 273.597,118.152 272.173,118.389 254.267 L 118.600 238.333 119.951 237.127 L 121.301 235.921 125.151 236.187 C 139.394 237.173,156.843 233.250,161.857 227.933 C 163.292 226.411,166.039 221.694,165.172 222.240 C 164.857 222.438,163.282 223.472,161.671 224.539 C 153.275 230.094,144.502 232.186,128.893 232.356 C 114.439 232.514,114.687 232.158,114.384 253.200 C 114.158 268.889,114.116 269.250,112.250 271.468 C 108.713 275.671,94.609 274.645,92.005 269.995 L 91.000 268.200 90.740 219.200 C 90.598 192.250,90.328 169.348,90.140 168.308 L 89.800 166.415 88.442 169.798 M222.300 177.493 C 223.235 177.577,224.765 177.577,225.700 177.493 C 226.635 177.409,225.870 177.340,224.000 177.340 C 222.130 177.340,221.365 177.409,222.300 177.493 M210.401 179.798 C 209.886 180.348,209.539 180.864,209.632 180.946 C 209.724 181.028,210.219 180.578,210.730 179.947 C 211.876 178.535,211.674 178.444,210.401 179.798 M115.037 186.500 C 113.806 194.755,114.055 208.238,115.489 211.000 C 117.419 214.716,120.594 215.593,129.519 214.875 C 140.324 214.005,146.425 211.074,148.392 205.807 C 149.451 202.971,149.420 202.908,147.716 204.448 C 142.944 208.759,136.687 210.855,126.906 211.420 C 118.823 211.886,118.400 211.413,118.400 201.894 C 118.400 195.187,118.127 193.141,116.557 188.100 C 115.363 184.266,115.369 184.273,115.037 186.500 M182.083 244.163 C 180.160 248.545,180.000 249.670,180.002 258.764 C 180.005 270.363,180.645 272.271,184.829 273.169 C 187.481 273.738,187.471 273.740,186.489 272.695 C 184.272 270.335,184.254 270.188,183.862 250.764 C 183.687 242.117,183.418 241.120,182.083 244.163 " stroke="none" fill="#9cdede" fill-rule="evenodd"></path>
        <path id="path7" d="M195.400 7.194 C 193.136 7.609,191.198 8.530,187.034 11.168 C 183.594 13.346,182.183 14.157,176.000 17.511 C 174.570 18.287,172.729 19.344,171.908 19.861 C 171.087 20.377,170.336 20.800,170.237 20.800 C 170.139 20.800,168.741 21.669,167.129 22.732 C 164.141 24.702,160.456 26.878,156.245 29.158 C 154.039 30.353,139.073 38.893,136.273 40.556 C 135.573 40.971,134.190 41.765,133.200 42.319 C 130.400 43.886,119.947 49.822,118.523 50.654 C 112.175 54.362,99.238 61.892,98.602 62.250 C 93.248 65.253,83.423 70.994,74.491 76.341 C 72.230 77.693,70.316 78.800,70.237 78.800 C 70.055 78.800,59.227 84.986,49.600 90.590 C 45.530 92.959,39.140 96.610,35.400 98.703 C 21.796 106.315,18.930 108.362,17.067 111.800 L 16.200 113.400 16.000 213.200 C 15.795 315.722,15.807 316.870,17.166 319.532 C 18.567 322.279,25.228 327.046,33.200 331.006 C 36.213 332.503,44.838 337.523,50.400 341.017 C 54.258 343.441,62.412 348.088,74.588 354.805 C 75.902 355.530,78.782 357.236,80.988 358.598 C 85.565 361.423,94.766 366.711,99.200 369.066 C 101.742 370.416,111.798 376.235,115.174 378.309 C 117.964 380.023,120.705 381.762,121.636 382.409 C 122.205 382.805,124.635 384.157,127.036 385.413 C 129.436 386.669,133.560 388.998,136.200 390.589 C 138.840 392.180,143.340 394.796,146.200 396.402 C 149.060 398.009,153.110 400.403,155.200 401.724 C 157.290 403.045,159.450 404.409,160.000 404.756 C 160.550 405.103,161.360 405.580,161.800 405.818 C 167.501 408.892,170.506 410.540,174.200 412.617 C 176.620 413.978,179.860 415.775,181.400 416.611 C 182.940 417.447,186.136 419.358,188.501 420.859 C 193.778 424.207,196.489 425.603,197.687 425.590 C 200.288 425.562,207.140 422.465,214.279 418.089 C 217.096 416.363,221.020 414.077,223.000 413.008 C 224.980 411.940,227.050 410.762,227.600 410.390 C 228.645 409.684,230.568 408.582,235.600 405.805 C 237.250 404.894,239.770 403.427,241.200 402.545 C 242.630 401.663,245.420 400.070,247.400 399.004 C 253.319 395.819,258.859 392.614,269.282 386.344 C 274.717 383.075,279.253 380.400,279.363 380.400 C 279.473 380.400,282.226 378.851,285.481 376.958 C 294.540 371.690,299.008 369.140,303.600 366.618 C 305.910 365.350,308.540 363.815,309.444 363.208 C 310.348 362.600,313.858 360.528,317.244 358.604 C 320.630 356.679,326.702 353.191,330.738 350.852 C 352.921 337.998,367.028 329.886,370.000 328.274 C 375.867 325.094,379.067 322.052,380.089 318.683 C 380.498 317.337,380.600 296.727,380.600 215.600 L 380.600 114.200 379.485 112.200 C 378.071 109.661,376.105 108.030,371.042 105.191 C 368.819 103.945,366.325 102.537,365.500 102.063 C 364.675 101.588,363.325 100.821,362.500 100.357 C 361.675 99.894,360.820 99.379,360.600 99.212 C 360.380 99.046,358.594 98.056,356.631 97.012 C 353.522 95.359,349.629 93.097,337.417 85.851 C 333.038 83.253,332.595 82.999,328.600 80.804 C 327.280 80.078,326.020 79.353,325.800 79.193 C 325.580 79.032,324.230 78.273,322.800 77.505 C 320.382 76.206,319.519 75.725,315.800 73.600 C 315.030 73.160,313.815 72.467,313.100 72.060 C 312.385 71.653,310.540 70.547,309.000 69.603 C 307.460 68.659,303.770 66.494,300.800 64.792 C 295.480 61.745,293.467 60.578,278.000 51.583 C 266.527 44.911,260.744 41.600,260.563 41.600 C 260.474 41.600,258.376 40.363,255.901 38.851 C 253.425 37.338,249.780 35.240,247.800 34.187 C 244.105 32.222,233.766 26.118,230.200 23.797 C 229.100 23.081,226.040 21.361,223.400 19.974 C 220.760 18.588,216.800 16.380,214.600 15.069 C 204.267 8.908,202.918 8.185,200.345 7.421 C 198.105 6.756,197.851 6.744,195.400 7.194 M201.497 9.524 C 203.360 10.232,215.418 17.037,231.400 26.400 C 235.800 28.978,242.550 32.884,246.400 35.080 C 254.034 39.434,259.744 42.728,272.600 50.192 C 277.220 52.875,282.710 56.024,284.800 57.190 C 286.890 58.357,292.830 61.779,298.000 64.795 C 303.170 67.810,312.350 73.118,318.400 76.590 C 324.450 80.062,332.370 84.656,336.000 86.800 C 339.630 88.943,348.810 94.255,356.400 98.603 C 376.333 110.023,376.614 110.226,378.292 114.427 C 379.108 116.472,379.627 309.216,378.832 314.956 C 378.039 320.675,376.077 322.714,365.722 328.583 C 362.245 330.554,353.010 335.883,345.200 340.425 C 337.390 344.967,326.050 351.532,320.000 355.014 C 313.950 358.495,305.220 363.527,300.600 366.194 C 295.980 368.861,288.330 373.265,283.600 375.979 C 278.870 378.694,271.400 383.023,267.000 385.599 C 254.501 392.919,244.964 398.428,229.600 407.207 C 221.790 411.669,213.325 416.542,210.789 418.036 C 197.594 425.807,199.040 425.852,184.400 417.215 C 180.550 414.943,173.800 411.009,169.400 408.472 C 165.000 405.934,156.360 400.952,150.200 397.400 C 144.040 393.848,133.060 387.519,125.800 383.335 C 118.540 379.152,101.890 369.523,88.800 361.938 C 75.710 354.353,62.930 346.976,60.400 345.546 C 57.870 344.115,51.030 340.155,45.200 336.746 C 39.370 333.337,31.916 329.029,28.636 327.174 C 21.908 323.368,19.319 321.269,17.946 318.504 L 17.000 316.600 17.000 216.000 C 17.000 119.633,17.031 115.321,17.729 113.511 C 18.963 110.313,22.309 107.857,35.600 100.395 C 37.690 99.222,43.630 95.799,48.800 92.788 C 53.970 89.778,62.880 84.610,68.600 81.305 C 74.320 77.999,84.670 72.015,91.600 68.007 C 98.530 63.998,114.010 55.083,126.000 48.195 C 150.514 34.113,156.821 30.466,168.000 23.909 C 194.859 8.155,196.284 7.543,201.497 9.524 M291.639 157.815 C 272.487 161.195,262.540 171.630,262.103 188.800 C 261.793 201.014,264.285 206.544,273.109 213.224 C 277.979 216.911,282.261 218.823,298.200 224.427 C 317.220 231.115,321.397 234.532,321.395 243.400 C 321.392 257.208,301.528 261.199,275.739 252.570 C 268.548 250.164,266.136 250.801,263.600 255.774 C 258.792 265.203,264.020 270.548,281.400 273.975 C 318.588 281.306,345.657 267.349,345.743 240.800 C 345.802 222.752,337.004 214.575,306.350 204.189 C 288.860 198.264,285.400 195.491,285.400 187.400 C 285.400 175.256,300.384 171.353,323.783 177.403 C 332.556 179.671,334.447 179.125,336.949 173.599 C 340.142 166.549,337.242 162.137,327.920 159.857 C 319.306 157.750,298.607 156.585,291.639 157.815 M306.851 158.995 C 311.333 159.322,315.810 159.679,316.800 159.787 C 318.635 159.988,320.574 160.180,325.200 160.618 C 336.701 161.707,340.112 166.622,335.319 175.200 C 333.527 178.407,331.502 178.689,324.724 176.674 C 322.813 176.105,319.303 175.354,316.924 175.004 C 314.546 174.654,312.150 174.288,311.600 174.190 C 310.123 173.929,298.395 173.944,297.000 174.209 C 286.264 176.253,281.348 184.263,285.400 193.112 C 287.317 197.299,292.829 200.859,301.654 203.610 C 330.840 212.708,340.611 219.409,344.022 232.668 C 349.261 253.029,335.467 270.859,311.900 274.188 C 311.075 274.305,309.779 274.488,309.020 274.595 C 307.025 274.876,294.452 274.924,292.800 274.657 C 292.030 274.532,290.242 274.325,288.827 274.196 C 268.303 272.326,260.233 266.935,263.838 257.502 C 266.102 251.577,267.848 251.103,277.000 253.929 C 283.174 255.836,286.238 256.603,289.200 256.984 C 311.277 259.822,322.183 255.200,322.196 243.000 C 322.206 233.617,318.156 230.261,299.000 223.779 C 276.700 216.233,269.261 211.628,264.787 202.600 L 263.400 199.800 263.400 193.800 C 263.400 180.736,265.053 175.126,270.498 169.706 C 277.594 162.644,283.453 160.201,297.000 158.657 C 297.660 158.581,298.313 158.493,298.451 158.460 C 298.589 158.427,302.369 158.668,306.851 158.995 M106.200 159.284 C 94.192 159.734,92.979 160.092,91.138 163.738 L 90.299 165.400 91.959 163.528 C 94.171 161.033,94.788 160.897,105.000 160.667 C 113.258 160.481,117.697 159.988,118.580 159.157 C 118.806 158.945,118.239 158.828,117.180 158.870 C 116.201 158.908,111.260 159.095,106.200 159.284 M254.861 166.700 C 253.330 171.632,251.030 173.797,246.886 174.202 C 242.641 174.618,236.781 175.575,234.600 176.209 L 232.600 176.790 235.800 176.585 C 252.996 175.482,254.239 174.880,255.408 167.085 C 255.748 164.818,255.499 164.643,254.861 166.700 M123.200 175.181 C 116.912 175.585,114.764 177.068,114.840 180.954 L 114.880 183.000 115.243 181.458 C 116.246 177.189,118.269 176.304,127.000 176.318 C 137.256 176.333,142.249 177.848,146.355 182.190 C 150.845 186.937,152.662 194.866,150.574 200.600 C 149.984 202.219,151.084 200.590,151.788 198.800 C 154.566 191.746,149.986 181.094,142.522 177.248 C 139.367 175.622,130.726 174.698,123.200 175.181 M207.014 188.920 C 204.554 195.655,206.079 204.682,210.012 206.667 C 212.925 208.137,234.338 208.943,243.437 207.925 C 250.980 207.081,254.546 212.088,251.251 218.895 C 249.400 222.719,239.924 223.797,227.241 221.626 C 220.988 220.556,212.899 220.579,210.400 221.675 C 205.304 223.907,204.820 227.170,205.930 251.800 C 206.699 268.861,206.404 269.924,200.502 271.386 C 198.238 271.947,197.537 272.069,192.457 272.791 C 187.112 273.550,189.684 274.186,195.799 273.617 C 207.553 272.523,207.888 271.811,207.399 249.000 C 206.954 228.194,207.009 227.508,209.321 225.057 C 211.625 222.614,216.978 222.137,229.915 223.223 C 248.101 224.750,253.337 222.523,252.700 213.532 C 252.219 206.736,252.131 206.707,231.469 206.612 C 213.788 206.530,212.698 206.432,210.250 204.691 C 207.780 202.936,206.690 197.155,207.559 190.431 C 208.081 186.398,208.008 186.197,207.014 188.920 M183.862 189.800 C 184.185 192.364,184.088 235.649,183.753 238.000 C 183.575 239.254,183.607 239.316,184.064 238.600 C 184.432 238.023,184.657 234.291,184.871 225.200 C 185.034 218.270,185.345 209.630,185.561 206.000 C 185.999 198.668,185.837 194.559,184.974 191.062 C 184.111 187.563,183.490 186.859,183.862 189.800 M173.646 190.100 C 173.152 192.620,172.885 195.257,172.581 200.600 C 172.265 206.173,171.530 208.979,168.947 214.477 C 166.481 219.728,166.313 220.965,168.570 217.249 C 172.832 210.234,173.849 206.204,174.335 194.415 C 174.606 187.842,174.373 186.384,173.646 190.100 " stroke="none" fill="#b4cccc" fill-rule="evenodd"></path>
        <path id="path8" d="M195.363 5.598 C 192.255 6.242,186.618 9.280,166.400 21.208 C 161.670 23.998,156.360 27.061,154.600 28.015 C 152.840 28.969,150.298 30.419,148.952 31.239 C 147.605 32.058,140.315 36.284,132.752 40.630 C 115.299 50.658,97.799 60.773,90.600 64.993 C 87.520 66.798,83.560 69.056,81.800 70.010 C 80.040 70.964,74.826 73.984,70.213 76.722 C 65.601 79.461,58.851 83.368,55.213 85.406 C 51.576 87.444,45.592 90.887,41.916 93.056 C 38.240 95.225,31.779 98.980,27.558 101.400 C 18.927 106.349,16.164 108.570,14.753 111.692 L 13.800 113.800 13.800 215.600 C 13.800 314.764,13.820 317.451,14.562 319.377 C 16.062 323.265,18.902 325.592,29.000 331.207 C 32.300 333.042,38.510 336.609,42.800 339.135 C 49.980 343.362,53.931 345.651,75.800 358.255 C 85.327 363.745,92.313 367.791,101.000 372.848 C 104.740 375.025,112.120 379.265,117.400 382.269 C 122.680 385.274,130.240 389.646,134.200 391.986 C 138.160 394.326,143.740 397.563,146.600 399.179 C 149.460 400.796,154.770 403.868,158.400 406.007 C 162.030 408.146,166.710 410.840,168.800 411.994 C 170.890 413.149,176.470 416.390,181.200 419.199 C 194.636 427.176,194.062 426.914,197.600 426.668 C 201.806 426.375,204.136 425.438,211.426 421.107 C 214.932 419.025,219.060 416.632,220.600 415.791 C 222.140 414.949,227.450 411.921,232.400 409.060 C 237.350 406.200,245.810 401.348,251.200 398.279 C 256.590 395.209,263.819 391.009,267.263 388.945 C 272.954 385.535,279.732 381.618,297.600 371.413 C 301.010 369.465,306.140 366.483,309.000 364.786 C 311.860 363.089,317.170 360.032,320.800 357.992 C 324.430 355.951,330.190 352.626,333.600 350.602 C 341.825 345.719,349.783 341.121,363.764 333.174 C 373.007 327.920,375.826 326.118,377.803 324.200 C 382.263 319.874,381.800 332.432,381.800 215.800 L 381.800 114.200 380.878 112.163 C 379.136 108.315,375.324 105.487,361.800 98.010 C 358.500 96.186,350.130 91.359,343.200 87.283 C 336.270 83.207,324.570 76.416,317.200 72.192 C 309.830 67.968,301.100 62.936,297.800 61.010 C 294.500 59.084,289.820 56.423,287.400 55.097 C 284.980 53.771,279.940 50.842,276.200 48.588 C 272.460 46.335,267.060 43.188,264.200 41.595 C 261.340 40.002,257.723 37.927,256.162 36.983 C 254.601 36.039,250.654 33.788,247.391 31.982 C 244.128 30.175,238.206 26.766,234.230 24.406 C 230.253 22.046,223.670 18.216,219.600 15.895 C 215.530 13.574,210.497 10.667,208.416 9.435 C 202.481 5.921,198.892 4.866,195.363 5.598 M200.345 7.421 C 202.918 8.185,204.267 8.908,214.600 15.069 C 216.800 16.380,220.760 18.588,223.400 19.974 C 226.040 21.361,229.100 23.081,230.200 23.797 C 233.766 26.118,244.105 32.222,247.800 34.187 C 249.780 35.240,253.425 37.338,255.901 38.851 C 258.376 40.363,260.474 41.600,260.563 41.600 C 260.744 41.600,266.527 44.911,278.000 51.583 C 293.467 60.578,295.480 61.745,300.800 64.792 C 303.770 66.494,307.460 68.659,309.000 69.603 C 310.540 70.547,312.385 71.653,313.100 72.060 C 313.815 72.467,315.030 73.160,315.800 73.600 C 319.519 75.725,320.382 76.206,322.800 77.505 C 324.230 78.273,325.580 79.032,325.800 79.193 C 326.020 79.353,327.280 80.078,328.600 80.804 C 332.595 82.999,333.038 83.253,337.417 85.851 C 349.629 93.097,353.522 95.359,356.631 97.012 C 358.594 98.056,360.380 99.046,360.600 99.212 C 360.820 99.379,361.675 99.894,362.500 100.357 C 363.325 100.821,364.675 101.588,365.500 102.063 C 366.325 102.537,368.819 103.945,371.042 105.191 C 376.105 108.030,378.071 109.661,379.485 112.200 L 380.600 114.200 380.600 215.600 C 380.600 296.727,380.498 317.337,380.089 318.683 C 379.067 322.052,375.867 325.094,370.000 328.274 C 367.028 329.886,352.921 337.998,330.738 350.852 C 326.702 353.191,320.630 356.679,317.244 358.604 C 313.858 360.528,310.348 362.600,309.444 363.208 C 308.540 363.815,305.910 365.350,303.600 366.618 C 299.008 369.140,294.540 371.690,285.481 376.958 C 282.226 378.851,279.473 380.400,279.363 380.400 C 279.253 380.400,274.717 383.075,269.282 386.344 C 258.859 392.614,253.319 395.819,247.400 399.004 C 245.420 400.070,242.630 401.663,241.200 402.545 C 239.770 403.427,237.250 404.894,235.600 405.805 C 230.568 408.582,228.645 409.684,227.600 410.390 C 227.050 410.762,224.980 411.940,223.000 413.008 C 221.020 414.077,217.096 416.363,214.279 418.089 C 207.140 422.465,200.288 425.562,197.687 425.590 C 196.489 425.603,193.778 424.207,188.501 420.859 C 186.136 419.358,182.940 417.447,181.400 416.611 C 179.860 415.775,176.620 413.978,174.200 412.617 C 170.506 410.540,167.501 408.892,161.800 405.818 C 161.360 405.580,160.550 405.103,160.000 404.756 C 159.450 404.409,157.290 403.045,155.200 401.724 C 153.110 400.403,149.060 398.009,146.200 396.402 C 143.340 394.796,138.840 392.180,136.200 390.589 C 133.560 388.998,129.436 386.669,127.036 385.413 C 124.635 384.157,122.205 382.805,121.636 382.409 C 120.705 381.762,117.964 380.023,115.174 378.309 C 111.798 376.235,101.742 370.416,99.200 369.066 C 94.766 366.711,85.565 361.423,80.988 358.598 C 78.782 357.236,75.902 355.530,74.588 354.805 C 62.412 348.088,54.258 343.441,50.400 341.017 C 44.838 337.523,36.213 332.503,33.200 331.006 C 25.228 327.046,18.567 322.279,17.166 319.532 C 15.807 316.870,15.795 315.722,16.000 213.200 L 16.200 113.400 17.067 111.800 C 18.930 108.362,21.796 106.315,35.400 98.703 C 39.140 96.610,45.530 92.959,49.600 90.590 C 59.227 84.986,70.055 78.800,70.237 78.800 C 70.316 78.800,72.230 77.693,74.491 76.341 C 83.423 70.994,93.248 65.253,98.602 62.250 C 99.238 61.892,112.175 54.362,118.523 50.654 C 119.947 49.822,130.400 43.886,133.200 42.319 C 134.190 41.765,135.573 40.971,136.273 40.556 C 139.073 38.893,154.039 30.353,156.245 29.158 C 160.456 26.878,164.141 24.702,167.129 22.732 C 168.741 21.669,170.139 20.800,170.237 20.800 C 170.336 20.800,171.087 20.377,171.908 19.861 C 172.729 19.344,174.570 18.287,176.000 17.511 C 182.183 14.157,183.594 13.346,187.034 11.168 C 191.198 8.530,193.136 7.609,195.400 7.194 C 197.851 6.744,198.105 6.756,200.345 7.421 M121.600 158.319 C 121.050 158.385,120.330 158.550,120.000 158.685 C 119.670 158.820,119.310 158.949,119.200 158.972 C 119.090 158.994,118.820 159.125,118.600 159.262 C 117.398 160.011,112.376 160.528,104.129 160.750 C 93.695 161.031,93.907 160.971,91.266 164.412 C 90.034 166.019,89.953 166.303,90.193 168.175 C 90.336 169.289,90.577 192.250,90.727 219.200 L 91.000 268.200 92.005 269.995 C 94.609 274.645,108.713 275.671,112.250 271.468 C 114.116 269.250,114.158 268.889,114.384 253.200 C 114.687 232.158,114.439 232.514,128.893 232.356 C 139.134 232.245,145.391 231.428,151.893 229.354 C 157.325 227.622,165.275 222.788,166.199 220.656 C 166.499 219.965,167.743 217.220,168.965 214.556 C 171.540 208.940,172.267 206.134,172.581 200.600 C 172.927 194.523,173.161 192.462,173.861 189.336 C 174.679 185.684,174.498 184.834,171.665 178.994 C 165.381 166.045,153.925 159.993,133.779 158.980 C 130.930 158.837,127.250 158.603,125.600 158.459 C 123.950 158.316,122.150 158.253,121.600 158.319 M59.347 158.823 C 49.886 159.773,49.555 160.463,49.094 180.200 C 48.748 195.025,49.010 263.811,49.422 266.200 C 50.516 272.546,52.365 273.800,60.629 273.800 C 67.412 273.800,70.196 272.800,71.764 269.800 C 72.831 267.759,73.796 203.244,73.268 169.262 C 73.125 160.059,70.045 157.749,59.347 158.823 M189.805 158.854 C 184.357 160.129,183.250 163.355,183.218 178.052 C 183.201 185.494,183.253 186.045,184.209 188.585 C 185.374 191.682,186.021 196.888,185.775 201.200 C 185.389 207.973,184.820 225.377,184.811 230.710 C 184.802 235.398,184.655 236.830,183.992 238.710 C 183.264 240.771,183.224 241.380,183.588 244.800 C 183.810 246.890,184.042 253.100,184.103 258.600 C 184.241 271.048,185.232 274.126,188.884 273.453 C 190.479 273.159,194.414 272.516,196.600 272.193 C 206.495 270.729,206.757 270.157,205.930 251.800 C 204.820 227.170,205.304 223.907,210.400 221.675 C 212.899 220.579,220.988 220.556,227.241 221.626 C 239.924 223.797,249.400 222.719,251.251 218.895 C 254.546 212.088,250.980 207.081,243.437 207.925 C 239.424 208.374,217.341 208.282,213.600 207.801 C 206.022 206.826,203.747 198.696,207.724 186.800 C 208.276 185.150,208.956 183.024,209.236 182.075 C 210.309 178.434,212.468 177.711,223.337 177.354 C 228.351 177.189,231.530 176.885,233.602 176.374 C 236.908 175.558,242.722 174.607,246.886 174.201 C 251.189 173.782,253.755 171.118,255.254 165.514 C 256.137 162.213,253.308 159.708,247.723 158.845 C 244.153 158.293,192.168 158.301,189.805 158.854 M297.000 158.657 C 283.453 160.201,277.594 162.644,270.498 169.706 C 265.053 175.126,263.400 180.736,263.400 193.800 L 263.400 199.800 264.787 202.600 C 269.261 211.628,276.700 216.233,299.000 223.779 C 318.156 230.261,322.206 233.617,322.196 243.000 C 322.183 255.200,311.277 259.822,289.200 256.984 C 286.238 256.603,283.174 255.836,277.000 253.929 C 267.848 251.103,266.102 251.577,263.838 257.502 C 260.233 266.935,268.303 272.326,288.827 274.196 C 290.242 274.325,292.030 274.532,292.800 274.657 C 294.452 274.924,307.025 274.876,309.020 274.595 C 309.779 274.488,311.075 274.305,311.900 274.188 C 335.467 270.859,349.261 253.029,344.022 232.668 C 340.611 219.409,330.840 212.708,301.654 203.610 C 292.829 200.859,287.317 197.299,285.400 193.112 C 281.348 184.263,286.264 176.253,297.000 174.209 C 298.395 173.944,310.123 173.929,311.600 174.190 C 312.150 174.288,314.546 174.654,316.924 175.004 C 319.303 175.354,322.813 176.105,324.724 176.674 C 331.502 178.689,333.527 178.407,335.319 175.200 C 340.112 166.622,336.701 161.707,325.200 160.618 C 320.574 160.180,318.635 159.988,316.800 159.787 C 314.258 159.509,298.755 158.388,298.451 158.460 C 298.313 158.493,297.660 158.581,297.000 158.657 M313.800 160.855 C 330.324 162.314,337.257 166.310,333.618 172.278 C 331.860 175.161,330.172 175.422,323.605 173.825 C 297.956 167.588,281.873 172.819,281.873 187.400 C 281.873 197.145,286.422 201.067,305.000 207.344 C 323.926 213.738,329.347 216.431,335.211 222.355 C 346.257 233.513,344.321 254.313,331.344 263.883 C 320.592 271.812,301.623 274.409,282.164 270.614 C 267.923 267.836,263.541 264.373,266.375 258.131 C 268.005 254.542,270.133 254.277,277.639 256.727 C 291.262 261.173,307.817 261.598,315.926 257.709 C 324.714 253.493,327.764 242.646,322.480 234.400 C 318.782 228.630,314.256 226.231,293.835 219.217 C 271.783 211.642,264.960 204.578,265.038 189.400 C 265.148 167.971,282.086 158.056,313.800 160.855 M66.578 162.171 C 71.062 164.067,70.846 161.174,70.714 217.629 L 70.600 266.200 69.600 268.200 C 66.838 273.724,53.526 272.853,51.957 267.046 C 51.072 263.769,51.469 167.012,52.376 164.961 C 53.898 161.520,61.504 160.026,66.578 162.171 M247.646 162.047 C 252.819 163.157,253.571 169.558,248.799 171.873 C 246.709 172.887,236.486 173.590,223.500 173.613 C 206.656 173.643,205.398 174.681,204.325 189.442 C 202.910 208.919,205.572 210.660,235.458 209.801 C 247.839 209.445,249.461 210.076,249.089 215.103 C 248.736 219.887,247.797 220.095,227.344 219.929 C 202.819 219.730,204.207 218.144,204.186 246.400 C 204.168 271.000,204.486 270.200,194.731 270.200 C 186.425 270.200,186.293 269.964,186.550 255.629 C 187.339 211.511,187.483 195.255,187.130 190.000 C 186.501 180.628,186.833 166.016,187.706 164.687 C 188.625 163.285,190.112 162.332,191.934 161.977 C 194.478 161.482,245.307 161.546,247.646 162.047 M138.810 162.415 C 159.749 164.977,171.200 175.731,171.200 192.831 C 171.200 204.324,168.960 211.512,163.011 219.116 C 157.015 226.779,145.732 230.099,126.141 229.965 C 112.498 229.872,112.373 230.070,112.033 252.200 C 111.729 272.025,112.036 271.400,102.600 271.400 C 91.938 271.400,92.721 275.931,92.896 215.246 C 93.048 162.835,92.878 164.894,97.200 163.100 C 99.130 162.299,133.272 161.737,138.810 162.415 M119.449 173.212 C 116.327 173.706,114.031 175.104,112.796 177.261 L 111.800 179.000 111.927 193.400 C 112.095 212.499,112.473 214.423,116.455 216.480 C 121.775 219.228,136.354 217.936,143.799 214.058 C 161.407 204.885,157.109 177.851,137.400 173.805 C 133.622 173.030,122.847 172.673,119.449 173.212 M138.322 176.034 C 149.956 178.701,156.844 193.563,150.196 201.653 C 149.720 202.233,149.104 203.514,148.828 204.500 C 147.080 210.743,141.128 213.941,129.519 214.875 C 120.595 215.593,117.421 214.717,115.488 211.000 C 114.026 208.190,113.809 192.179,115.149 186.000 C 115.316 185.230,115.324 184.150,115.166 183.600 C 114.180 180.158,115.088 177.513,117.735 176.117 C 120.408 174.709,132.331 174.660,138.322 176.034 " stroke="none" fill="#acd4dc" fill-rule="evenodd"></path>
    </g>
</svg>